<?xml version="1.0" standalone="no"?>
<!DOCTYPE svg PUBLIC "-//W3C//DTD SVG 20010904//EN"
 "http://www.w3.org/TR/2001/REC-SVG-20010904/DTD/svg10.dtd">
<svg version="1.0" xmlns="http://www.w3.org/2000/svg"
 width="920.000000pt" height="800.000000pt" viewBox="0 0 920.000000 800.000000"
 preserveAspectRatio="xMidYMid meet">

<g transform="translate(0.000000,800.000000) scale(0.100000,-0.100000)"
fill="#000000" stroke="none">
<path d="M4700 7494 c-702 -66 -1328 -324 -1865 -770 -654 -543 -1102 -1321
-1251 -2174 -37 -208 -45 -308 -51 -575 -7 -354 10 -553 73 -860 98 -476 297
-944 574 -1346 211 -305 511 -617 800 -831 839 -620 1877 -816 2873 -543 342
93 702 262 1002 469 799 550 1347 1421 1509 2401 77 461 62 995 -39 1446 -199
888 -709 1663 -1436 2181 -459 327 -1048 546 -1614 598 -100 9 -489 12 -575 4z"/>
</g>
</svg>
